<svg xmlns="http://www.w3.org/2000/svg" xmlns:xlink="http://www.w3.org/1999/xlink" width="112" height="24.184" viewBox="0 0 112 24.184">
  <defs>
    <clipPath id="clip-path">
      <rect id="Ret창ngulo_9355" data-name="Ret창ngulo 9355" width="112" height="24.184" fill="none"/>
    </clipPath>
  </defs>
  <g id="Grupo_94213" data-name="Grupo 94213" transform="translate(-112 -34.18)">
    <rect id="Ret창ngulo_9354" data-name="Ret창ngulo 9354" width="24.184" height="24.184" transform="translate(112 34.18)" fill="#00c88d"/>
    <path id="Caminho_3663" data-name="Caminho 3663" d="M29.666,22.894l4.68,11.212H32.8l-3.978-9.276L25,34.105H23.448l4.525-11.212Z" transform="translate(95.195 17.772)" fill="#175459" fill-rule="evenodd"/>
    <g id="Grupo_40245" data-name="Grupo 40245" transform="translate(112 34.18)">
      <g id="Grupo_40244" data-name="Grupo 40244" clip-path="url(#clip-path)">
        <path id="Caminho_3664" data-name="Caminho 3664" d="M247.847,38.663a4.109,4.109,0,1,1,4.109-4.109,4.109,4.109,0,0,1-4.109,4.109m0-9.852a5.745,5.745,0,1,0,5.745,5.745,5.745,5.745,0,0,0-5.745-5.745" transform="translate(-173.513 -20.649)" fill="#fff"/>
        <path id="Caminho_3665" data-name="Caminho 3665" d="M307.467,34.055V31.073h3.32a1.493,1.493,0,1,1,.062,2.986h-.062Zm6.444-1.5a3.126,3.126,0,0,0-3.125-3.127h-4.954V40.564h1.635V35.687h2.587l2.6,4.875H314.5l-2.7-5.052a3.128,3.128,0,0,0,2.1-2.951Z" transform="translate(-219.188 -21.095)" fill="#fff"/>
        <path id="Caminho_3666" data-name="Caminho 3666" d="M187.467,35.225H191.2v.891a3.654,3.654,0,0,1-.919,1.436,4.2,4.2,0,0,1-2.929,1.089,4.109,4.109,0,1,1,2.91-7l1.109-1.2a5.745,5.745,0,1,0-4.021,9.841,5.506,5.506,0,0,0,5.482-3.9v-2.79h-5.368Z" transform="translate(-130.152 -20.631)" fill="#fff"/>
        <path id="Caminho_3667" data-name="Caminho 3667" d="M359.877,36.254l1.952-4.672,1.953,4.672Zm2.829-6.812h-1.754l-4.657,11.129h1.771l1.122-2.684h5.273l1.122,2.684h1.771L362.7,29.442Z" transform="translate(-255.354 -21.101)" fill="#fff"/>
        <path id="Caminho_3668" data-name="Caminho 3668" d="M147.644,15.994h-3.059l-.652,1.559h3.711Z" transform="translate(-103.156 -11.463)" fill="#fff"/>
        <path id="Caminho_3669" data-name="Caminho 3669" d="M127.785,36.254l1.952-4.672,1.953,4.672Zm1.081-6.812-4.657,11.129h1.771l1.121-2.684h5.271l1.122,2.684h1.77l-4.652-11.129Z" transform="translate(-89.02 -21.101)" fill="#fff"/>
      </g>
    </g>
  </g>
</svg>
